<svg width="48" height="48" viewBox="0 0 48 48" fill="none" xmlns="http://www.w3.org/2000/svg">
<path fill-rule="evenodd" clip-rule="evenodd" d="M24 6C24.1856 6.0001 24.3676 6.05189 24.5255 6.14955C24.6834 6.24722 24.811 6.38692 24.894 6.553L41.894 40.553C41.9701 40.7054 42.0061 40.8748 41.9984 41.045C41.9908 41.2152 41.9397 41.3806 41.8502 41.5256C41.7606 41.6706 41.6355 41.7902 41.4867 41.8733C41.3379 41.9563 41.1704 41.9999 41 42H6.99999C6.82959 41.9999 6.66205 41.9563 6.51326 41.8733C6.36446 41.7902 6.23935 41.6706 6.14979 41.5256C6.06023 41.3806 6.0092 41.2152 6.00153 41.045C5.99387 40.8748 6.02982 40.7054 6.10599 40.553L23.106 6.553C23.189 6.38692 23.3166 6.24722 23.4745 6.14955C23.6324 6.05189 23.8143 6.0001 24 6ZM8.61799 40H39.382L24 9.236L8.61799 40Z" fill="white"/>
<path d="M22 20C22 19.4696 22.2107 18.9609 22.5858 18.5858C22.9609 18.2107 23.4696 18 24 18C24.5304 18 25.0391 18.2107 25.4142 18.5858C25.7893 18.9609 26 19.4696 26 20V30C26 30.5304 25.7893 31.0391 25.4142 31.4142C25.0391 31.7893 24.5304 32 24 32C23.4696 32 22.9609 31.7893 22.5858 31.4142C22.2107 31.0391 22 30.5304 22 30V20ZM22 35.966C22 34.88 22.88 34 23.966 34H24.034C24.5555 34 25.0557 34.2072 25.4245 34.576C25.7933 34.9448 26.0005 35.445 26.0005 35.9665C26.0005 36.488 25.7933 36.9882 25.4245 37.357C25.0557 37.7258 24.5555 37.933 24.034 37.933H23.967C23.7087 37.9331 23.4528 37.8823 23.2141 37.7835C22.9754 37.6847 22.7585 37.5399 22.5758 37.3572C22.3931 37.1745 22.2483 36.9576 22.1495 36.7189C22.0507 36.4802 21.9999 36.2243 22 35.966Z" fill="white"/>
</svg>
