<svg viewBox="0 0 256 256">
    <g clip-path="url(#clip0_703_4)">
        <path d="M196 0H60C26.8629 0 0 26.8629 0 60V196C0 229.137 26.8629 256 60 256H196C229.137 256 256 229.137 256 196V60C256 26.8629 229.137 0 196 0Z" fill="currentcolor"/>
        <g mask="url(#mask0_703_4)">
            <path d="M197.308 64.797C184.342 58.8448 170.658 54.6004 156.599 52.17C156.471 52.1463 156.339 52.1636 156.222 52.2192C156.104 52.2749 156.007 52.3661 155.945 52.48C154.187 55.606 152.239 59.686 150.876 62.892C135.503 60.59 120.21 60.59 105.153 62.892C103.789 59.614 101.771 55.606 100.005 52.48C99.9395 52.3685 99.842 52.2792 99.7252 52.2239C99.6084 52.1686 99.4776 52.1498 99.3499 52.17C85.29 54.5955 71.6054 58.8401 58.6409 64.797C58.5299 64.8441 58.4363 64.9245 58.3729 65.027C32.4449 103.763 25.3429 141.547 28.8269 178.863C28.8366 178.954 28.8646 179.043 28.9093 179.123C28.9539 179.204 29.0143 179.274 29.0869 179.331C46.1929 191.894 62.7639 199.521 79.0269 204.576C79.1534 204.614 79.2884 204.612 79.4139 204.571C79.5393 204.53 79.6492 204.451 79.7289 204.346C83.5759 199.092 87.0049 193.553 89.9459 187.728C89.9864 187.648 90.0095 187.561 90.0137 187.471C90.018 187.382 90.0032 187.293 89.9704 187.209C89.9376 187.126 89.8875 187.051 89.8235 186.988C89.7595 186.926 89.6829 186.878 89.5989 186.847C84.1589 184.783 78.9799 182.268 73.9979 179.411C73.9071 179.358 73.8309 179.283 73.776 179.193C73.7211 179.103 73.6891 179.001 73.6829 178.896C73.6766 178.791 73.6964 178.686 73.7403 178.59C73.7843 178.494 73.8511 178.411 73.9349 178.347C74.9859 177.561 76.0188 176.752 77.0329 175.919C77.1216 175.846 77.2292 175.798 77.3433 175.783C77.4575 175.767 77.5737 175.784 77.6789 175.831C110.411 190.775 145.846 190.775 178.191 175.831C178.296 175.781 178.414 175.762 178.53 175.776C178.646 175.79 178.755 175.837 178.846 175.911C179.861 176.749 180.897 177.561 181.952 178.347C182.036 178.41 182.103 178.493 182.148 178.588C182.193 178.684 182.213 178.789 182.208 178.894C182.202 178.999 182.171 179.101 182.117 179.191C182.063 179.281 181.987 179.357 181.897 179.411C176.912 182.322 171.691 184.806 166.288 186.839C166.204 186.871 166.128 186.92 166.064 186.984C166.001 187.048 165.951 187.124 165.919 187.208C165.887 187.292 165.874 187.381 165.879 187.471C165.884 187.561 165.908 187.648 165.949 187.728C168.941 193.507 172.353 199.058 176.157 204.338C176.234 204.446 176.344 204.527 176.47 204.57C176.596 204.613 176.732 204.615 176.859 204.576C193.201 199.521 209.772 191.894 226.879 179.331C226.952 179.277 227.013 179.208 227.058 179.129C227.103 179.05 227.13 178.962 227.139 178.871C231.309 135.73 220.154 98.255 197.568 65.035C197.513 64.9271 197.42 64.8426 197.308 64.797ZM94.8339 156.142C84.9789 156.142 76.8589 147.095 76.8589 135.984C76.8589 124.873 84.8219 115.826 94.8339 115.826C104.924 115.826 112.965 124.953 112.807 135.984C112.807 147.095 104.846 156.142 94.8339 156.142ZM161.29 156.142C151.435 156.142 143.316 147.095 143.316 135.984C143.316 124.873 151.278 115.826 161.29 115.826C171.38 115.826 179.421 124.953 179.264 135.984C179.264 147.095 171.38 156.142 161.29 156.142Z" fill="black"/>
        </g>
    </g>
</svg>
