<svg width="20" height="20" viewBox="0 0 20 20" fill="none" xmlns="http://www.w3.org/2000/svg">
<path d="M16.365 11.414C16.4588 11.5077 16.5859 11.5604 16.7185 11.5604C16.8511 11.5604 16.9782 11.5077 17.072 11.414L19.193 9.293C19.2841 9.1987 19.3345 9.0724 19.3333 8.9413C19.3322 8.8102 19.2796 8.68479 19.1869 8.59209C19.0942 8.49939 18.9688 8.4468 18.8377 8.44566C18.7066 8.44452 18.5803 8.49492 18.486 8.586L17.489 9.583C17.4036 8.04587 16.8472 6.57226 15.8953 5.36225C14.9435 4.15225 13.6424 3.26446 12.1686 2.81944C10.6948 2.37441 9.11979 2.3937 7.65735 2.87468C6.19491 3.35567 4.91591 4.27505 3.994 5.508C3.91444 5.61409 3.88027 5.74744 3.89903 5.87871C3.91778 6.00999 3.98792 6.12844 4.094 6.208C4.20009 6.28757 4.33344 6.32173 4.46471 6.30297C4.59599 6.28422 4.71444 6.21409 4.794 6.108C5.61471 5.01001 6.76154 4.1996 8.07054 3.79261C9.37955 3.38563 10.7837 3.40291 12.0823 3.84199C13.3809 4.28106 14.5074 5.11946 15.3009 6.23731C16.0943 7.35517 16.514 8.69526 16.5 10.066C16.5 10.09 16.502 10.116 16.505 10.139L14.951 8.586C14.8567 8.49492 14.7304 8.44452 14.5993 8.44566C14.4682 8.4468 14.3428 8.49939 14.2501 8.59209C14.1574 8.68479 14.1048 8.8102 14.1037 8.9413C14.1025 9.0724 14.1529 9.1987 14.244 9.293L16.365 11.414ZM3.637 8.586C3.54324 8.49226 3.41608 8.43961 3.2835 8.43961C3.15092 8.43961 3.02377 8.49226 2.93 8.586L0.809002 10.707C0.717922 10.8013 0.667526 10.9276 0.668665 11.0587C0.669804 11.1898 0.722387 11.3152 0.815092 11.4079C0.907797 11.5006 1.0332 11.5532 1.1643 11.5543C1.2954 11.5555 1.4217 11.5051 1.516 11.414L2.513 10.417C2.59844 11.9541 3.15485 13.4277 4.10667 14.6377C5.05849 15.8478 6.35962 16.7355 7.8334 17.1806C9.30718 17.6256 10.8822 17.6063 12.3447 17.1253C13.8071 16.6443 15.0861 15.725 16.008 14.492C16.0474 14.4395 16.0761 14.3797 16.0924 14.3161C16.1087 14.2525 16.1123 14.1863 16.103 14.1213C16.0937 14.0563 16.0717 13.9938 16.0382 13.9373C16.0048 13.8808 15.9605 13.8314 15.908 13.792C15.8555 13.7526 15.7957 13.7239 15.7321 13.7076C15.6685 13.6913 15.6023 13.6877 15.5373 13.697C15.4723 13.7063 15.4098 13.7283 15.3533 13.7618C15.2968 13.7952 15.2474 13.8395 15.208 13.892C14.3872 14.9901 13.2403 15.8005 11.9312 16.2075C10.6221 16.6144 9.21785 16.5971 7.91921 16.1579C6.62056 15.7187 5.49403 14.8801 4.70068 13.7621C3.90732 12.6441 3.48777 11.3038 3.502 9.933C3.50212 9.90858 3.50044 9.88418 3.497 9.86L5.051 11.414C5.09713 11.4618 5.1523 11.4998 5.2133 11.5261C5.2743 11.5523 5.33991 11.566 5.4063 11.5666C5.47269 11.5672 5.53853 11.5546 5.59998 11.5294C5.66143 11.5043 5.71725 11.4671 5.7642 11.4202C5.81115 11.3733 5.84827 11.3174 5.87341 11.256C5.89855 11.1945 5.91121 11.1287 5.91063 11.0623C5.91005 10.9959 5.89626 10.9303 5.87005 10.8693C5.84385 10.8083 5.80576 10.7531 5.758 10.707L3.637 8.586Z" fill="white"/>
</svg>
