<svg width="26" height="26" viewBox="0 0 26 26" fill="none" xmlns="http://www.w3.org/2000/svg">
<g clip-path="url(#clip0_803_2)">
<path d="M14.937 7.5H11.063C10.9873 7.20446 10.9801 6.89553 11.042 6.59679C11.1039 6.29804 11.2332 6.01738 11.42 5.77621C11.6069 5.53505 11.8463 5.33975 12.1202 5.20523C12.394 5.07071 12.6949 5.00051 13 5C13.3051 5.00051 13.606 5.07071 13.8798 5.20523C14.1537 5.33975 14.3931 5.53505 14.58 5.77621C14.7669 6.01738 14.8962 6.29804 14.958 6.59679C15.0199 6.89553 15.0127 7.20446 14.937 7.5Z" fill="white"/>
<path d="M7.5 8.5C7.23478 8.5 6.98043 8.39464 6.79289 8.20711C6.60536 8.01957 6.5 7.76522 6.5 7.5C6.5 7.23478 6.60536 6.98043 6.79289 6.79289C6.98043 6.60536 7.23478 6.5 7.5 6.5H18.5C18.7652 6.5 19.0196 6.60536 19.2071 6.79289C19.3946 6.98043 19.5 7.23478 19.5 7.5C19.5 7.76522 19.3946 8.01957 19.2071 8.20711C19.0196 8.39464 18.7652 8.5 18.5 8.5H7.5Z" fill="white"/>
<path fill-rule="evenodd" clip-rule="evenodd" d="M17.5 21.5C17.7652 21.5 18.0196 21.3946 18.2071 21.2071C18.3946 21.0196 18.5 20.7652 18.5 20.5V10C18.5 9.73478 18.3946 9.48043 18.2071 9.29289C18.0196 9.10536 17.7652 9 17.5 9H8.5C8.23478 9 7.98043 9.10536 7.79289 9.29289C7.60536 9.48043 7.5 9.73478 7.5 10V20.5C7.5 20.7652 7.60536 21.0196 7.79289 21.2071C7.98043 21.3946 8.23478 21.5 8.5 21.5H17.5ZM15.5 11.5C15.5 11.3674 15.5527 11.2402 15.6464 11.1464C15.7402 11.0527 15.8674 11 16 11C16.1326 11 16.2598 11.0527 16.3536 11.1464C16.4473 11.2402 16.5 11.3674 16.5 11.5V18.5C16.5 18.6326 16.4473 18.7598 16.3536 18.8536C16.2598 18.9473 16.1326 19 16 19C15.8674 19 15.7402 18.9473 15.6464 18.8536C15.5527 18.7598 15.5 18.6326 15.5 18.5V11.5ZM13 11C12.8674 11 12.7402 11.0527 12.6464 11.1464C12.5527 11.2402 12.5 11.3674 12.5 11.5V18.5C12.5 18.6326 12.5527 18.7598 12.6464 18.8536C12.7402 18.9473 12.8674 19 13 19C13.1326 19 13.2598 18.9473 13.3536 18.8536C13.4473 18.7598 13.5 18.6326 13.5 18.5V11.5C13.5 11.3674 13.4473 11.2402 13.3536 11.1464C13.2598 11.0527 13.1326 11 13 11ZM9.5 11.5C9.5 11.3674 9.55268 11.2402 9.64645 11.1464C9.74021 11.0527 9.86739 11 10 11C10.1326 11 10.2598 11.0527 10.3536 11.1464C10.4473 11.2402 10.5 11.3674 10.5 11.5V18.5C10.5 18.6326 10.4473 18.7598 10.3536 18.8536C10.2598 18.9473 10.1326 19 10 19C9.86739 19 9.74021 18.9473 9.64645 18.8536C9.55268 18.7598 9.5 18.6326 9.5 18.5V11.5Z" fill="white"/>
<path fill-rule="evenodd" clip-rule="evenodd" d="M13 24C19.075 24 24 19.075 24 13C24 6.925 19.075 2 13 2C6.925 2 2 6.925 2 13C2 19.075 6.925 24 13 24ZM13 26C20.18 26 26 20.18 26 13C26 5.82 20.18 0 13 0C5.82 0 0 5.82 0 13C0 20.18 5.82 26 13 26Z" fill="white"/>
</g>
<defs>
<clipPath id="clip0_803_2">
<rect width="26" height="26" fill="white"/>
</clipPath>
</defs>
</svg>
